# xmcd CD database file
#
# Track frame offsets:
#	150
#	18489
#	32934
#	48662
#	66159
#	84632
#	103040
#	117551
#	133315
#	150813
#	169196
#	223631
#	240709
#	252342
#	269703
#	291398
#
# Disc length: 4342 seconds
#
# Revision: 2
# Processed by: cddbd v1.5.2PL0 Copyright (c) Steve Scherf et al.
# Submitted via: CDex 1.70beta2
#
DISCID=f710f410
DTITLE=COOL&CREATE - drizzly again
DYEAR=2010
DGENRE=東方アレンジ
TTITLE0=drizzly rain
TTITLE1=レザマリでもつらくないっ！
TTITLE2=ラクト・ガール
TTITLE3=としょかんのおと
TTITLE4=レヴァリエ
TTITLE5=drizzly rain(no vocal version)
TTITLE6=レザマリでもつらくないっ！(no vocal version)
TTITLE7=ラクト・ガール(no vocal version)
TTITLE8=としょかんのおと(no vocal version)
TTITLE9=レヴァリエ(no vocal version)
TTITLE10=トークトラック
TTITLE11=drizzly rain(まりお version)
TTITLE12=レザマリでもつらくないっ！(あまね version)
TTITLE13=としょかんのおれ
TTITLE14=drizzly rain(旧バージョン)
TTITLE15=秋思い&しあわせうさぎ(ビートまりお&ビートまりお母 version)
EXTD=YEAR: 2010
EXTT0=
EXTT1=
EXTT2=
EXTT3=
EXTT4=
EXTT5=
EXTT6=
EXTT7=
EXTT8=
EXTT9=
EXTT10=
EXTT11=
EXTT12=
EXTT13=
EXTT14=
EXTT15=
PLAYORDER=
